<svg xmlns="http://www.w3.org/2000/svg" height="24" viewBox="0 -960 960 960" width="24"><path d="M480.134-120q-74.673 0-140.41-28.339-65.737-28.34-114.365-76.922-48.627-48.582-76.993-114.257Q120-405.194 120-479.866q0-74.673 28.35-140.41t76.95-114.365q48.6-48.627 114.3-76.993Q405.3-840 480-840q61.409 0 116.204 19 54.796 19 99.95 53l-28.769 29.769q-39.539-29.384-86.982-45.577Q532.96-800 480-800q-133 0-226.5 93.5T160-480q0 133 93.5 226.5T480-160q133 0 226.5-93.5T800-480q0-24.154-3.538-47.379-3.539-23.225-10.616-45.159l31.923-32.693q11 29.692 16.616 60.926Q840-513.071 840-480q0 74.7-28.339 140.4-28.34 65.7-76.922 114.3-48.582 48.6-114.257 76.95Q554.806-120 480.134-120Zm-57.672-203.692L280.154-466l28.308-28.308 114 114 389.23-389.461L840-741.462l-417.538 417.77Z"/></svg>